<svg
  version="1.1"
  xmlns="http://www.w3.org/2000/svg"
  xmlns:xlink="http://www.w3.org/1999/xlink"
  width="512"
  height="512">

  <g id="heart" viewBox="0 0 512 512">
    <path
      d="M255.99,472.00
         C255.99,471.99 255.99,472.00 255.99,472.00
          256.00,472.00 256.01,472.00 256.01,472.00
          256.01,472.00 256.01,471.99 256.01,471.99
          258.50,471.99 261.69,468.98 265.18,465.73
          365.42,372.31 504.00,314.47 504.00,189.41
          504.00,91.99 452.54,38.68 380.63,40.02
          302.64,41.47 264.47,94.73 256.00,143.16
          247.53,94.73 209.36,41.47 131.37,40.02
          59.46,38.68 8.00,91.99 8.00,189.41
          8.00,314.47 146.58,372.31 246.82,465.73
          250.31,468.98 253.50,471.99 255.99,471.99
          255.99,472.00 256.00,472.00 256.00,472.00
          256.00,472.00 255.99,472.00 255.99,472.00 Z" />
  </g>
</svg>